# xmcd
#
# Track frame offsets:
#	150
#	17638
#	44632
#	68153
#	83647
#	104591
#	127224
#	147559
#	171542
#	189836
#	208510
#	224564
#	243373
#	267189
#	290862
#	311767
#	331551
#
# Disc length: 4663 seconds
#
# Revision: 0
# Processed by: cddbd v1.5.1PL2 Copyright (c) Steve Scherf et al.
# Submitted via: dBpowerAMP V4.0
#
DISCID=0f123511
DTITLE=Hellbillies - CoolTur
DYEAR=1900
DGENRE=Country
TTITLE0=Gamle Bry'n
TTITLE1=Eg æ på gang
TTITLE2=I mårgo har eg fri
TTITLE3=Som ein båt på land
TTITLE4=Hinmann og eg
TTITLE5=Angelina
TTITLE6=Gode spørsmål
TTITLE7=Røta
TTITLE8=Heng i ein tråd
TTITLE9=Den finast eg veit
TTITLE10=På Ål Stasjon
TTITLE11=Sur som rognebær
TTITLE12=Drag
TTITLE13=The claw
TTITLE14=Eg gløymer deg aldri
TTITLE15=Ein krasafaren steinbu
TTITLE16=Dårleg tid
EXTD=
EXTT0=
EXTT1=
EXTT2=
EXTT3=
EXTT4=
EXTT5=
EXTT6=
EXTT7=
EXTT8=
EXTT9=
EXTT10=
EXTT11=
EXTT12=
EXTT13=
EXTT14=
EXTT15=
EXTT16=
PLAYORDER=
